<svg width="80" height="31" viewBox="0 0 80 31" fill="none" xmlns="http://www.w3.org/2000/svg">
<path d="M25.636 6.88123e-06H4.61675C2.06806 6.88123e-06 0 2.118 0 4.73405V25.5446C0 28.1366 2.02716 30.2414 4.54757 30.2787L25.621 30.2793C28.1697 30.2793 30.2426 28.1607 30.2426 25.5446L30.2528 4.73405C30.2528 2.118 28.1841 6.88123e-06 25.636 6.88123e-06ZM7.11491 27.8533L5.96779 27.8671C4.57885 27.8671 3.4576 26.7236 3.4576 25.3184L3.44918 25.1157V5.89802L3.4576 4.86218C3.51354 3.50272 4.54517 2.40433 5.89861 2.40433H8.22834C10.3439 2.40433 12.0547 4.242 12.0547 6.40631C12.0547 7.48124 11.6336 8.45152 10.9527 9.16072L5.00774 15.1905L10.5821 20.8689C11.298 21.6112 11.7311 22.5851 11.7311 23.6492C11.7311 25.9705 9.6684 27.8533 7.11491 27.8533V27.8533ZM24.2525 27.8358L13.8587 27.8328C13.8587 27.8328 15.0605 25.233 15.0605 23.6263C15.0605 21.6671 14.4055 19.9137 13.3799 18.7563L9.82661 15.1315L13.4502 11.3864C14.5348 10.3674 15.2506 8.5646 15.2506 6.51398C15.2506 4.88925 14.8019 3.44979 14.0752 2.40433H16.595C18.7088 2.40433 20.4214 4.242 20.4214 6.40631C20.4214 7.48124 20.0021 8.45152 19.323 9.16072L13.4881 15.1291L25.603 27.484C25.2168 27.7258 24.7343 27.8358 24.2525 27.8358V27.8358ZM26.788 23.977L18.1049 15.1273L22.2398 10.9262C23.0825 9.87053 23.6191 8.28549 23.6191 6.51398C23.6191 4.87962 23.1619 3.40226 22.4323 2.35741L24.2808 2.41515C25.6673 2.41515 26.7952 3.55506 26.7952 4.96444L26.788 23.977Z" fill="#00529C"/>
<path d="M48.8834 13.7179C49.0524 13.5489 49.2521 13.3311 49.4825 13.0646C49.7123 12.7982 49.9301 12.4836 50.1358 12.1202C50.3415 11.7569 50.5172 11.3521 50.6621 10.9039C50.8077 10.4564 50.8805 9.97818 50.8805 9.46988C50.8805 8.47796 50.7109 7.55221 50.3722 6.69262C50.0329 5.83363 49.5126 5.08292 48.8106 4.44109C48.1086 3.80046 47.2316 3.29758 46.1783 2.93425C45.1256 2.57153 43.8967 2.38987 42.4933 2.38987H42.4548H38.4198H37.3695H33.2346V7.01805V23.0404V27.8051H43.4011C44.8772 27.8051 46.1657 27.6054 47.2677 27.206C48.3685 26.8066 49.2828 26.2562 50.0089 25.5542C50.7349 24.8522 51.2733 24.0354 51.6246 23.1036C51.9753 22.1718 52.1509 21.1733 52.1509 20.108C52.1509 18.6799 51.8243 17.4095 51.171 16.2955C50.5172 15.1826 49.7544 14.323 48.8834 13.7179ZM44.3882 7.04692C44.7304 7.17745 45.0162 7.34708 45.2393 7.56063C45.8174 8.11524 46.1067 8.77812 46.1067 9.54929C46.1067 10.2489 45.9858 10.8269 45.7452 11.2847C45.504 11.7431 45.2628 12.0926 45.0222 12.3332H37.9548V6.74676H42.3478C43.1713 6.74676 43.8492 6.84841 44.3882 7.04692V7.04692ZM43.6549 16.7316C44.9344 16.7316 45.8824 17.063 46.4995 17.7247C47.08 18.3761 47.3724 19.1449 47.3724 20.0346C47.3724 20.9513 47.0409 21.7339 46.378 22.3848C45.7145 23.0356 44.6246 23.3616 43.1057 23.3616H42.5385H37.9548V16.7316H43.6549Z" fill="#00529C"/>
<path d="M69.3872 16.8585C70.1494 16.3382 70.7852 15.733 71.2935 15.0431C71.8018 14.3531 72.1765 13.591 72.4189 12.756C72.6608 11.9205 72.7823 11.0676 72.7823 10.1959C72.7823 9.05844 72.594 8.01177 72.2192 7.05534C71.8433 6.09951 71.2808 5.27661 70.5307 4.58666C69.78 3.8967 68.8422 3.35833 67.7168 2.97095C66.5913 2.58416 65.2902 2.38987 63.814 2.38987H63.6811H53.902H53.8106V27.8051H58.6222V18.3653H61.3051L67.9405 27.8051H73.5805L66.7188 18.0387C67.7348 17.7728 68.6245 17.3794 69.3872 16.8585ZM63.8501 6.74676C64.1527 6.74676 64.4384 6.76661 64.7103 6.80089C65.5681 6.93022 66.2689 7.2364 66.8091 7.72304C67.5441 8.38653 67.9117 9.1998 67.9117 10.1635C67.9117 10.6465 67.8329 11.1163 67.6765 11.574C67.5195 12.0324 67.2728 12.436 66.9354 12.7849C66.5973 13.135 66.1636 13.4177 65.6337 13.6349C65.1031 13.852 64.4643 13.9603 63.7172 13.9603H58.6222V6.74676H63.8501Z" fill="#00529C"/>
<path d="M75.2798 2.38987V2.39708C75.2311 2.39588 75.1835 2.38987 75.1348 2.38987H75.0939V2.39167V11.7076V18.3828V27.8051H80V2.38987H75.2798Z" fill="#00529C"/>
</svg>
