<svg width="132" height="50" viewBox="0 0 132 50" fill="none" xmlns="http://www.w3.org/2000/svg">
<g clip-path="url(#clip0_2808_47)">
<g clip-path="url(#clip1_2808_47)">
<mask id="mask0_2808_47" style="mask-type:luminance" maskUnits="userSpaceOnUse" x="-1673" y="-25" width="2017" height="1136">
<path fill-rule="evenodd" clip-rule="evenodd" d="M-1672.73 1110.06H343.383V-24.0071H-1672.73V1110.06Z" fill="white"/>
</mask>
<g mask="url(#mask0_2808_47)">
<mask id="mask1_2808_47" style="mask-type:luminance" maskUnits="userSpaceOnUse" x="-3" y="-3" width="319" height="58">
<path d="M-2.63278 54.1175L315.402 54.1176L315.402 -2.58515L-2.6329 -2.58526L-2.63278 54.1175Z" fill="white"/>
</mask>
<g mask="url(#mask1_2808_47)">
<path d="M43.2295 8.16258L77.2465 8.16259L77.2465 28.5714L62.9757 28.5714L77.2466 41.6325L65.1234 41.6325L51.128 28.5714L51.128 41.6325L43.2296 41.6325L43.2295 20.885L68.1706 20.885L68.1706 15.9187L43.2295 15.9187L43.2295 8.16258Z" fill="black"/>
<path d="M80.7789 41.6325L89.0925 41.6325L89.0924 8.09476L80.7788 8.09476L80.7789 41.6325Z" fill="black"/>
<path d="M14.2022 33.5372L14.2022 8.16252L7.68984 8.16252C6.51214 8.16252 5.61137 9.04756 5.61138 10.1346C5.61139 16.1231 5.54219 33.7414 5.5422 39.5916C5.5422 40.6801 6.44297 41.6324 7.55144 41.6324C12.0545 41.6324 25.0095 41.6325 26.8793 41.6325L26.8792 33.5372L14.2022 33.5372Z" fill="black"/>
<path d="M31.1747 50C31.9377 50 37.7567 50 39.6972 50C39.6972 50 39.6972 33.4692 39.6972 33.1972C36.9254 33.1972 34.0171 33.1972 31.1746 33.1972C31.1746 38.7753 31.1747 44.3535 31.1747 50Z" fill="black"/>
<path d="M18.3588 8.16254C18.3588 8.29963 18.3588 16.5295 18.3588 16.5295C22.1694 16.5295 27.0181 16.5295 31.1746 16.5295C31.1746 22.3136 31.1746 29.0476 31.1746 29.0476C33.1151 29.0476 38.9341 29.0476 39.6971 29.0476L39.6971 10.2044C39.6971 9.11493 38.7951 8.22989 37.6884 8.16255C33.5319 8.16255 23.693 8.16254 18.3588 8.16254Z" fill="black"/>
<path d="M18.3589 20.6108C18.3589 23.4006 18.3589 26.1904 18.3589 29.1149C19.0517 29.1149 19.8137 29.1149 20.5066 29.1149C22.4473 29.1149 24.8705 29.1149 26.811 29.1149C26.811 29.1149 26.8109 20.7479 26.8109 20.6108C24.0392 20.6108 21.1994 20.6108 18.3589 20.6108ZM24.3171 26.5295C23.4858 26.5295 22.5156 26.5295 21.7525 26.5295C21.4766 26.5295 21.1994 26.5295 20.853 26.5295C20.853 25.3727 20.853 24.2856 20.853 23.1288C22.0304 23.1288 23.1396 23.1288 24.3171 23.1288C24.3171 23.1962 24.3171 26.5295 24.3171 26.5295Z" fill="black"/>
<path d="M129.898 33.1972L129.898 45.7143C129.898 46.8025 128.928 47.6871 127.821 47.6871L115.074 47.6871L115.074 49.7277L129.898 49.7277L129.969 49.7277C131.007 49.7277 131.907 48.8434 131.907 47.7549L131.907 47.6871L131.907 33.1972L129.898 33.1972Z" fill="black"/>
<path d="M2.07837 16.4622L2.07835 3.94417C2.07835 2.85711 2.90963 2.03941 4.0181 2.03941L16.7656 2.03941C16.8348 2.03941 16.8348 1.97207 16.8348 1.97207L16.8348 0.0673079C16.8348 0.0673079 16.8348 -3.18654e-05 16.7656 -3.18903e-05L2.07834 -3.71554e-05C0.900641 -3.75776e-05 -0.000123009 0.885006 -0.000120688 2.03941L-9.16881e-05 16.4622C-9.15527e-05 16.5295 0.0691417 16.5295 0.0691417 16.5295L2.00914 16.5295C2.00914 16.5295 2.07837 16.5295 2.07837 16.4622Z" fill="black"/>
<path d="M126.295 16.4623L126.295 8.16261L92.6948 8.1626L92.6948 20.6109L92.6948 28.9803L115.074 28.9803L115.074 33.1292L92.6949 33.1292L92.6949 41.4964L126.295 41.4964L126.295 20.6806L103.918 20.6806L103.918 16.4623L126.295 16.4623Z" fill="black"/>
</g>
</g>
</g>
</g>
<defs>
<clipPath id="clip0_2808_47">
<rect width="132" height="50" fill="white"/>
</clipPath>
<clipPath id="clip1_2808_47">
<rect width="311.194" height="50" fill="white"/>
</clipPath>
</defs>
</svg>
