<?xml version="1.0" encoding="UTF-8"?>
<svg id="Layer_2" data-name="Layer 2" xmlns="http://www.w3.org/2000/svg" xmlns:xlink="http://www.w3.org/1999/xlink" viewBox="0 0 304.39 304.39">
  <defs>
    <style>
      .cls-1 {
        fill: #c5e6f7;
      }

      .cls-2 {
        fill: url(#linear-gradient-2);
      }

      .cls-3 {
        fill: url(#linear-gradient-3);
      }

      .cls-4 {
        fill: url(#linear-gradient);
      }
    </style>
    <linearGradient id="linear-gradient" x1="132.8" y1="202.95" x2="144.74" y2="84.25" gradientUnits="userSpaceOnUse">
      <stop offset="0" stop-color="#345790"/>
      <stop offset="1" stop-color="#254777"/>
    </linearGradient>
    <linearGradient id="linear-gradient-2" x1="130.11" y1="202.68" x2="142.05" y2="83.98" xlink:href="#linear-gradient"/>
    <linearGradient id="linear-gradient-3" x1="89.16" y1="147.73" x2="234.35" y2="147.73" gradientUnits="userSpaceOnUse">
      <stop offset="0" stop-color="#406cb2"/>
      <stop offset="1" stop-color="#254777"/>
    </linearGradient>
  </defs>
  <g id="Layer_1-2" data-name="Layer 1">
    <g>
      <path class="cls-1" d="M165.2,5.39l28.41,28.41c3.45,3.45,8.13,5.39,13.01,5.39h40.18c10.16,0,18.4,8.24,18.4,18.4v40.18c0,4.88,1.94,9.56,5.39,13.01l28.41,28.41c7.19,7.19,7.19,18.84,0,26.02l-28.41,28.41c-3.45,3.45-5.39,8.13-5.39,13.01v40.18c0,10.16-8.24,18.4-18.4,18.4h-40.18c-4.88,0-9.56,1.94-13.01,5.39l-28.41,28.41c-7.19,7.19-18.84,7.19-26.02,0l-28.41-28.41c-3.45-3.45-8.13-5.39-13.01-5.39h-40.18c-10.16,0-18.4-8.24-18.4-18.4v-40.18c0-4.88-1.94-9.56-5.39-13.01l-28.41-28.41c-7.19-7.19-7.19-18.84,0-26.02l28.41-28.41c3.45-3.45,5.39-8.13,5.39-13.01v-40.18c0-10.16,8.24-18.4,18.4-18.4h40.18c4.88,0,9.56-1.94,13.01-5.39l28.41-28.41c7.19-7.19,18.84-7.19,26.02,0Z"/>
      <g>
        <g id="layer1">
          <path class="cls-4" d="M168.82,103.29c-2.88-.97-5.88-1.44-9.01-1.44-9.65,0-17.85,3.6-24.71,10.74-6.9,7.19-10.32,14.85-10.32,23.01,0,5.2,3.17,10.07,9.56,14.64-13.33-6.3-20.01-13.2-20.01-20.64,0-8.16,3.43-15.86,10.28-23.01,6.85-7.15,15.1-10.74,24.75-10.74,7.11,0,13.58,2.45,19.46,7.45Z"/>
          <path class="cls-2" d="M149.95,190.06c-1.9.76-3.77,1.52-5.58,2.33-12.99-3.64-23.14-8.04-30.46-13.28,9.35,4.44,21.36,8.08,36.04,10.96Z"/>
        </g>
        <g id="layer1-2" data-name="layer1">
          <path class="cls-3" d="M234.35,150.46c-1.06,4.02-2.33,7.66-3.77,10.91-4.1,9.6-9.6,15.99-16.5,19.16l-109.53,52.46-11.68,5.58v-5.84c0-12.44,17.13-25.89,51.48-40.36,1.82-.8,3.68-1.57,5.58-2.33-14.68-2.88-26.69-6.51-36.04-10.96-16.5-7.78-24.75-17.94-24.75-30.46,0-15.57,10.03-35.71,30.08-60.45,16.79-20.9,32.74-31.31,47.89-31.31,6.94,0,12.82,2.33,17.6,6.94.47.42.89.85,1.31,1.31,4.99,5.54,7.49,12.18,7.49,19.97,0,6.6-3.68,15.65-11.04,27.16-.89,1.35-1.78,2.75-2.75,4.15-3.34-5.5-6.98-9.86-10.91-13.11-5.88-4.99-12.35-7.45-19.46-7.45-9.65,0-17.89,3.6-24.75,10.74-6.85,7.15-10.28,14.85-10.28,23.01,0,7.45,6.68,14.34,20.01,20.64,1.23.59,2.58,1.18,3.93,1.78,15.14,6.52,31.01,9.81,47.59,9.81,12.06,0,28.22-3.81,48.48-11.38Z"/>
        </g>
      </g>
    </g>
  </g>
</svg>