<?xml version="1.0" encoding="UTF-8"?> <svg xmlns="http://www.w3.org/2000/svg" width="189" height="36" viewBox="0 0 189 36" fill="none"><path d="M19.1528 5.59447C20.6014 4.82642 22.2542 4.38892 24.0139 4.38892C29.7597 4.38892 34.4167 9.04586 34.4167 14.7917C34.4167 15.8125 33.5903 16.6389 32.5694 16.6389C31.5486 16.6389 30.7222 15.8125 30.7222 14.7917C30.7222 11.0875 27.718 8.08336 24.0139 8.08336C23.4597 8.08336 22.9153 8.15141 22.4 8.2778C23.8389 10.057 24.6944 12.3222 24.6944 14.7917C24.6944 17.8542 22.2153 20.3334 19.1528 20.3334C16.0903 20.3334 13.6111 17.8542 13.6111 14.7917C13.6111 13.0417 14.0389 11.3986 14.8069 9.95002C16.1097 10.0861 17.2666 10.7375 18.0542 11.7C17.5778 12.6236 17.3056 13.6736 17.3056 14.782C17.3056 15.8028 18.1319 16.6292 19.1528 16.6292C20.1736 16.6292 21 15.8028 21 14.782C21 12.9931 20.3 11.3695 19.1528 10.1639C18.2875 9.25975 17.1694 8.58891 15.9055 8.2778C15.3903 8.15141 14.8459 8.08336 14.2917 8.08336C10.5875 8.08336 7.58333 11.0875 7.58333 14.7917C7.58333 15.8125 6.75694 16.6389 5.73611 16.6389C4.71527 16.6389 3.88889 15.8125 3.88889 14.7917C3.88889 9.04586 8.54587 4.38892 14.2917 4.38892C16.0513 4.38892 17.7041 4.82642 19.1528 5.59447Z" fill="white"></path><path d="M5.69728 19.2931C6.65004 18.9236 7.71948 19.3903 8.08891 20.3431C9.80976 24.7764 14.1167 27.9167 19.1528 27.9167C24.1889 27.9167 28.4959 24.7764 30.2166 20.3431C30.5862 19.4 31.6556 18.9236 32.6084 19.2931C33.5611 19.6625 34.0278 20.732 33.6584 21.6847C31.4028 27.4889 25.7639 31.6111 19.1528 31.6111C12.5417 31.6111 6.90277 27.4889 4.6472 21.6847C4.27777 20.732 4.74442 19.6625 5.69728 19.2931Z" fill="white"></path><path d="M157.111 13.4011H153.839V19.4293C153.839 19.9316 153.964 20.2987 154.215 20.5305C154.466 20.7624 154.833 20.8976 155.316 20.9363C155.798 20.9556 156.397 20.9459 157.111 20.9073V24.2981C154.543 24.5879 152.729 24.3464 151.667 23.5736C150.624 22.8008 150.103 21.4193 150.103 19.4293V13.4011H147.583V9.80743H150.103V6.8803L153.839 5.75003V9.80743H157.111V13.4011Z" fill="white"></path><path d="M179.916 12.2628C180.265 11.3233 180.836 10.6188 181.631 10.149C182.444 9.67933 183.345 9.44447 184.333 9.44447V13.6719C183.19 13.5349 182.163 13.7698 181.253 14.3765C180.361 14.9832 179.916 15.9912 179.916 17.4003V24.4167H176.167V9.73805H179.916V12.2628Z" fill="white"></path><path fill-rule="evenodd" clip-rule="evenodd" d="M130.667 9.85177H126.916V11.5683C125.792 10.1524 124.212 9.44447 122.177 9.44447C120.238 9.44447 118.571 10.1912 117.176 11.6846C115.799 13.1587 115.111 14.9721 115.111 17.125C115.111 19.2779 115.799 21.1011 117.176 22.5945C118.571 24.0686 120.238 24.8056 122.177 24.8056C124.212 24.8056 125.792 24.0977 126.916 22.6818V24.3983H130.667V9.85177ZM122.874 21.2271C121.711 21.2271 120.752 20.8489 119.996 20.0925C119.24 19.3167 118.862 18.3275 118.862 17.125C118.862 15.9225 119.24 14.9431 119.996 14.1866C120.752 13.4108 121.711 13.0229 122.874 13.0229C124.037 13.0229 124.997 13.4108 125.753 14.1866C126.528 14.9431 126.916 15.9225 126.916 17.125C126.916 18.3275 126.528 19.3167 125.753 20.0925C124.997 20.8489 124.037 21.2271 122.874 21.2271Z" fill="white"></path><path fill-rule="evenodd" clip-rule="evenodd" d="M170.471 9.85177H174.222V24.3983H170.471V22.6818C169.347 24.0977 167.767 24.8056 165.732 24.8056C163.794 24.8056 162.127 24.0686 160.731 22.5945C159.355 21.1011 158.667 19.2779 158.667 17.125C158.667 14.9721 159.355 13.1587 160.731 11.6846C162.127 10.1912 163.794 9.44447 165.732 9.44447C167.767 9.44447 169.347 10.1524 170.471 11.5683V9.85177ZM163.551 20.0925C164.307 20.8489 165.267 21.2271 166.43 21.2271C167.593 21.2271 168.552 20.8489 169.308 20.0925C170.084 19.3167 170.471 18.3275 170.471 17.125C170.471 15.9225 170.084 14.9431 169.308 14.1866C168.552 13.4108 167.593 13.0229 166.43 13.0229C165.267 13.0229 164.307 13.4108 163.551 14.1866C162.795 14.9431 162.417 15.9225 162.417 17.125C162.417 18.3275 162.795 19.3167 163.551 20.0925Z" fill="white"></path><path fill-rule="evenodd" clip-rule="evenodd" d="M113.167 9.84832H109.641V11.6368C108.577 10.1752 107.085 9.44447 105.163 9.44447C103.204 9.44447 101.553 10.1656 100.209 11.6079C98.8661 13.0502 98.1945 14.7906 98.1945 16.8291C98.1945 18.8868 98.8568 20.6368 100.181 22.0791C101.525 23.5022 103.185 24.2137 105.163 24.2137C107.085 24.2137 108.577 23.4829 109.641 22.0214V23.5791C109.641 24.7137 109.314 25.5887 108.661 26.2041C108.008 26.8195 107.112 27.1272 105.974 27.1272C104.239 27.1272 103.017 26.4541 102.308 25.1079L99.2299 26.9252C99.8456 28.0791 100.722 28.9541 101.861 29.5502C103.017 30.1464 104.351 30.4445 105.862 30.4445C107.877 30.4445 109.594 29.8579 111.012 28.6849C112.448 27.5118 113.167 25.8099 113.167 23.5791V9.84832ZM105.723 20.781C104.584 20.781 103.642 20.4156 102.896 19.6849C102.168 18.9349 101.805 17.9829 101.805 16.8291C101.805 15.6945 102.168 14.7618 102.896 14.031C103.642 13.281 104.584 12.906 105.723 12.906C106.861 12.906 107.793 13.281 108.521 14.031C109.267 14.7618 109.641 15.6945 109.641 16.8291C109.641 17.9829 109.267 18.9349 108.521 19.6849C107.793 20.4156 106.861 20.781 105.723 20.781Z" fill="white"></path><path d="M90.8201 9.44447C92.3907 9.44447 93.6835 9.9785 94.6986 11.0466C95.7329 12.1146 96.25 13.5905 96.25 15.4741V24.4167H92.5439V15.9402C92.5439 14.9692 92.2853 14.2313 91.7682 13.7264C91.2511 13.2021 90.5616 12.9399 89.6997 12.9399C88.742 12.9399 87.9759 13.2409 87.4013 13.8429C86.8267 14.4449 86.5394 15.3479 86.5394 16.5519V24.4167H82.8333V9.85228H86.5394V11.4835C87.4396 10.1241 88.8665 9.44447 90.8201 9.44447Z" fill="white"></path><path d="M144.476 11.0466C143.461 9.9785 142.168 9.44447 140.598 9.44447C138.644 9.44447 137.217 10.1241 136.317 11.4835V9.85228H132.611V24.4167H136.317V16.5519C136.317 15.3479 136.605 14.4449 137.179 13.8429C137.754 13.2409 138.52 12.9399 139.477 12.9399C140.339 12.9399 141.029 13.2021 141.546 13.7264C142.063 14.2313 142.322 14.9692 142.322 15.9402V24.4167H146.028V15.4741C146.028 13.5905 145.511 12.1146 144.476 11.0466Z" fill="white"></path><path fill-rule="evenodd" clip-rule="evenodd" d="M69.8262 18.4335C70.3282 20.2105 71.6893 21.099 73.9096 21.099C75.3383 21.099 76.4194 20.6264 77.1531 19.6812L80.1649 21.3825C78.7362 23.4053 76.6318 24.4167 73.8517 24.4167C71.4577 24.4167 69.5367 23.7078 68.0887 22.29C66.6407 20.8721 65.9167 19.0857 65.9167 16.9306C65.9167 14.7944 66.631 13.0174 68.0597 11.5996C69.4884 10.1628 71.3225 9.44447 73.5621 9.44447C75.6858 9.44447 77.433 10.1628 78.8038 11.5996C80.1939 13.0363 80.8889 14.8133 80.8889 16.9306C80.8889 17.4032 80.8406 17.9042 80.7441 18.4335H69.8262ZM69.7683 15.5978H77.1531C76.9407 14.6337 76.4967 13.9153 75.8209 13.4427C75.1645 12.9701 74.4116 12.7338 73.5621 12.7338C72.5581 12.7338 71.7279 12.989 71.0715 13.4995C70.4151 13.991 69.9807 14.6904 69.7683 15.5978Z" fill="white"></path><path d="M62.4733 11.0757C61.4932 9.98821 60.1768 9.44447 58.5241 9.44447C56.6216 9.44447 55.1899 10.1436 54.229 11.5417C53.3835 10.1436 52.0767 9.44447 50.3087 9.44447C48.5023 9.44447 47.1667 10.095 46.3019 11.3961V9.85228H42.5833V24.4167H46.3019V16.2315C46.3019 15.1634 46.5421 14.3478 47.0225 13.7847C47.5222 13.2215 48.1852 12.9399 49.0115 12.9399C49.7802 12.9399 50.376 13.1827 50.7987 13.6682C51.2215 14.1536 51.4329 14.8333 51.4329 15.7072V24.4167H55.1515V16.2315C55.1515 15.1634 55.3821 14.3478 55.8433 13.7847C56.3237 13.2215 56.9867 12.9399 57.8323 12.9399C58.601 12.9399 59.1967 13.1827 59.6195 13.6682C60.0423 14.1536 60.2537 14.8333 60.2537 15.7072V24.4167H63.9722V15.445C63.9722 13.6196 63.4726 12.1632 62.4733 11.0757Z" fill="white"></path></svg> 